Coordinates
version=1
nRows=24
nColumns=24
inDegrees=yes

Units are S.I. units (second, meters, Newtons, ...)
Angles are in degrees.

endheader
time	pelvis_tilt	pelvis_list	pelvis_rotation	pelvis_tx	pelvis_ty	pelvis_tz	hip_flexion_r	hip_adduction_r	hip_rotation_r	knee_angle_r	ankle_angle_r	subtalar_angle_r	mtp_angle_r	hip_flexion_l	hip_adduction_l	hip_rotation_l	knee_angle_l	ankle_angle_l	subtalar_angle_l	mtp_angle_l	lumbar_extension	lumbar_bending	lumbar_rotation
      4.72500000	     14.91949792	      8.36310897	      2.74514810	      0.82555334	      0.76141320	     -0.25897086	      7.21471453	    -11.62727576	     -5.64766618	    -63.46436140	     18.16407298	     -4.53203481	      0.00000000	    -11.29507553	     13.26857314	      8.80691322	    -12.99630520	     23.28148156	      3.85603176	      0.00000000	    -34.29206390	     -5.55920565	      0.31508952
      4.73000000	     15.06179944	      8.53088362	      3.10942767	      0.83213210	      0.76153612	     -0.25934298	      7.84305057	    -11.79945287	     -5.68560543	    -62.57755555	     18.48526094	     -4.81905745	      0.00000000	    -12.32222790	     13.26549249	      9.08927645	    -12.49679161	     23.56945157	      4.21766556	      0.00000000	    -34.58082417	     -5.51744092	     -0.42033448
      4.73500000	     15.10160220	      8.71951102	      3.38091966	      0.83870683	      0.76145753	     -0.25962608	      8.60086399	    -11.98007607	     -5.57790220	    -61.62980751	     18.81087289	     -5.16455503	      0.00000000	    -13.21727799	     13.30584505	      9.25178646	    -12.01539041	     23.83356065	      4.52065969	      0.00000000	    -34.75235159	     -5.56197438	     -1.05245728
      4.74000000	     15.19892154	      8.86889662	      3.70159633	      0.84528538	      0.76140701	     -0.25992701	      9.21913388	    -12.11448612	     -5.51713154	    -60.53404051	     19.02163815	     -5.49570734	      0.00000000	    -14.18152942	     13.27014022	      9.46525039	    -11.53437289	     24.14240607	      4.94324429	      0.00000000	    -34.99070934	     -5.53663660	     -1.68683844
      4.74500000	     15.25563057	      9.05656138	      3.99506050	      0.85183728	      0.76122873	     -0.26021040	      9.86436624	    -12.29619530	     -5.42058532	    -59.36414426	     19.24030172	     -5.85123231	      0.00000000	    -15.08103485	     13.28090294	      9.59273615	    -11.08783652	     24.42808107	      5.31198584	      0.00000000	    -35.19192770	     -5.56400151	     -2.33022669
      4.75000000	     15.34783257	      9.20542049	      4.31110682	      0.85837790	      0.76105013	     -0.26047822	     10.40758545	    -12.42651429	     -5.34125139	    -58.06132422	     19.36913023	     -6.16886299	      0.00000000	    -16.01456092	     13.22620737	      9.74849254	    -10.65061097	     24.75279719	      5.75949579	      0.00000000	    -35.43772319	     -5.54237034	     -2.95525910
      4.75500000	     15.40652127	      9.39552024	      4.62679044	      0.86491161	      0.76076618	     -0.26074375	     10.94762867	    -12.60797673	     -5.25135245	    -56.67429008	     19.50841899	     -6.47836061	      0.00000000	    -16.89585563	     13.21393553	      9.85326671	    -10.25342193	     25.05452728	      6.15461502	      0.00000000	    -35.65702786	     -5.56521685	     -3.59618021
      4.76000000	     15.47944732	      9.56516244	      4.94395808	      0.87143787	      0.76045131	     -0.26099566	     11.41607691	    -12.77219742	     -5.19158583	    -55.16703806	     19.60534365	     -6.73471302	      0.00000000	    -17.77637188	     13.16993351	      9.97877925	     -9.88793591	     25.37623160	      6.57514776	      0.00000000	    -35.89419538	     -5.56447445	     -4.24679404
      4.76500000	     15.58925943	      9.70125150	      5.27432201	      0.87795990	      0.76013740	     -0.26124423	     11.77613892	    -12.88748916	     -5.12970323	    -53.53438947	     19.64900241	     -6.87982842	      0.00000000	    -18.68643352	     13.07168066	     10.10347298	     -9.53696561	     25.73128265	      7.03531298	      0.00000000	    -36.17618383	     -5.51597980	     -4.84826682
      4.77000000	     15.66984688	      9.86645309	      5.60426804	      0.88448150	      0.75973578	     -0.26149097	     12.11855091	    -13.04768426	     -5.09537858	    -51.81490725	     19.71458174	     -6.96007031	      0.00000000	    -19.54202954	     13.00541912	     10.21705484	     -9.24254373	     26.06812585	      7.44542664	      0.00000000	    -36.43244278	     -5.49723602	     -5.48215313
      4.77500000	     15.71312430	     10.06126999	      5.95733397	      0.89097925	      0.75925148	     -0.26173520	     12.44585867	    -13.24966174	     -5.09054411	    -50.01276064	     19.77776445	     -6.95418050	      0.00000000	    -20.32991074	     12.96421486	     10.34712344	     -9.01386199	     26.40137699	      7.80688083	      0.00000000	    -36.66474767	     -5.50436957	     -6.16577398
      4.78000000	     15.77609216	     10.22526227	      6.33176143	      0.89749768	      0.75876132	     -0.26200090	     12.67103125	    -13.42151590	     -5.13580352	    -48.09236959	     19.84698446	     -6.78067853	      0.00000000	    -21.12332037	     12.87477944	     10.50367249	     -8.81907501	     26.76013735	      8.17932595	      0.00000000	    -36.91472304	     -5.45835093	     -6.82913604
      4.78500000	     15.84535194	     10.38459026	      6.70998157	      0.90401891	      0.75824582	     -0.26223737	     12.82389493	    -13.58746741	     -5.21516052	    -46.07829211	     19.91525445	     -6.43653594	      0.00000000	    -21.89719852	     12.77048214	     10.66502206	     -8.67705949	     27.12806116	      8.53850738	      0.00000000	    -37.17845761	     -5.40860108	     -7.48992072
      4.79000000	     15.90577308	     10.54319838	      7.10555535	      0.91055811	      0.75769297	     -0.26248541	     12.91429191	    -13.75808136	     -5.34268692	    -43.97904828	     19.99860972	     -5.92132956	      0.00000000	    -22.63646705	     12.65632464	     10.83516103	     -8.59294229	     27.50720959	      8.88123033	      0.00000000	    -37.43382861	     -5.34449056	     -8.15695627
      4.79500000	     15.91687251	     10.68529484	      7.53537477	      0.91714110	      0.75708204	     -0.26271513	     12.97722788	    -13.90773423	     -5.51078331	    -41.79279916	     20.12444953	     -5.26378868	      0.00000000	    -23.30020051	     12.51150477	     11.04915490	     -8.55956078	     27.88105945	      9.22453324	      0.00000000	    -37.63383912	     -5.26661117	     -8.80852888
      4.80000000	     15.97545088	     10.83364565	      7.97634903	      0.92371576	      0.75649419	     -0.26296723	     12.91790185	    -14.07724787	     -5.77691372	    -39.54383341	     20.22336054	     -4.32885969	      0.00000000	    -23.97067293	     12.35898158	     11.23729624	     -8.62321085	     28.30350837	      9.55635224	      0.00000000	    -37.89275390	     -5.16435946	     -9.50244554
      4.80500000	     16.00302211	     10.96368668	      8.43217358	      0.93034729	      0.75586588	     -0.26318155	     12.82019617	    -14.21423154	     -6.06953987	    -37.23590465	     20.36000989	     -3.24075473	      0.00000000	    -24.58557746	     12.17640821	     11.42967372	     -8.72966123	     28.71990666	      9.87504041	      0.00000000	    -38.11134985	     -5.05171385	    -10.17374316
      4.81000000	     16.03521378	     11.09347227	      8.91276498	      0.93701135	      0.75523600	     -0.26339900	     12.64368157	    -14.35060530	     -6.43698991	    -34.88872314	     20.49874145	     -1.93547346	      0.00000000	    -25.17098234	     11.97515992	     11.63532301	     -8.91423889	     29.15727152	     10.21571830	      0.00000000	    -38.33454445	     -4.92290078	    -10.85985606
      4.81500000	     16.04867122	     11.20861922	      9.40301965	      0.94373164	      0.75458563	     -0.26358253	     12.42448147	    -14.45588602	     -6.82852029	    -32.51702770	     20.64177841	     -0.48078862	      0.00000000	    -25.70293738	     11.74957561	     11.84154226	     -9.16572661	     29.59694350	     10.55691185	      0.00000000	    -38.53012118	     -4.78379592	    -11.52817790
      4.82000000	     16.11460711	     11.37917468	      9.91182878	      0.95049022	      0.75399478	     -0.26374408	     12.07556675	    -14.61137142	     -7.29847743	    -30.14949530	     20.87442349	      1.23054727	      0.00000000	    -26.28657585	     11.53681886	     12.11546973	     -9.45231259	     29.95616804	     11.00749607	      0.00000000	    -38.79443080	     -4.68162912	    -12.20456824
      4.82500000	     16.15335074	     11.48734706	     10.40266061	      0.95731999	      0.75336793	     -0.26386989	     11.72185811	    -14.67641100	     -7.75910965	    -27.79991857	     21.03071115	      3.04692204	      0.00000000	    -26.77964189	     11.27898147	     12.30944498	     -9.83994746	     30.38694640	     11.33088603	      0.00000000	    -39.00466124	     -4.53199283	    -12.84235004
      4.83000000	     16.12877473	     11.56942462	     10.95066865	      0.96420010	      0.75271406	     -0.26397699	     11.37616383	    -14.70098560	     -8.24961869	    -25.47936351	     21.14290125	      4.86090765	      0.00000000	    -27.14687795	     10.97390263	     12.52063615	    -10.34351155	     30.83729218	     11.76534137	      0.00000000	    -39.13934720	     -4.35554887	    -13.46793517
      4.83500000	     16.06489558	     11.61491295	     11.52482740	      0.97117934	      0.75205031	     -0.26404545	     11.02625377	    -14.66392756	     -8.72649971	    -23.21038389	     21.21845511	      6.64722654	      0.00000000	    -27.43535676	     10.61748174	     12.72818296	    -10.90888235	     31.28373549	     12.24706280	      0.00000000	    -39.20812136	     -4.15313014	    -14.08450285
      4.84000000	     16.03426177	     11.65496299	     12.05841361	      0.97820082	      0.75142011	     -0.26406338	     10.63376900	    -14.59680030	     -9.18303188	    -21.04436703	     21.27256299	      8.51406132	      0.00000000	    -27.70269374	     10.26406270	     12.90671223	    -11.58144277	     31.71924525	     12.71084211	      0.00000000	    -39.30722155	     -3.96312582	    -14.60836526
